<?xml version="1.0" standalone="no"?>
<!DOCTYPE svg PUBLIC "-//W3C//DTD SVG 20010904//EN"
 "http://www.w3.org/TR/2001/REC-SVG-20010904/DTD/svg10.dtd">
<svg version="1.0" xmlns="http://www.w3.org/2000/svg"
 width="2042.000000pt" height="1717.000000pt" viewBox="0 0 2042.000000 1717.000000"
 preserveAspectRatio="xMidYMid meet">

<g transform="translate(0.000000,1717.000000) scale(0.100000,-0.100000)"
fill="#000000" stroke="none">
<path d="M9687 15279 c-619 -55 -1209 -318 -1631 -728 -131 -129 -252 -278
-592 -736 -331 -444 -521 -711 -713 -997 -181 -272 -182 -274 -154 -293 11 -8
90 -70 175 -138 175 -140 267 -198 348 -221 46 -13 143 -22 187 -17 23 2 229
285 573 786 406 591 632 871 887 1097 136 121 204 168 338 234 620 304 1422
207 2007 -243 254 -195 473 -491 573 -775 52 -148 23 -288 -85 -411 -55 -62
-134 -122 -244 -185 -49 -28 -93 -53 -98 -54 -14 -5 35 -109 95 -201 49 -76
221 -296 279 -358 14 -15 27 -33 30 -41 3 -8 35 -29 72 -47 95 -49 139 -49
606 -2 223 22 535 52 694 66 316 28 404 42 492 77 91 36 102 65 163 433 90
536 139 896 161 1174 6 73 17 149 26 169 8 20 65 86 126 149 61 62 108 116
105 120 -12 12 -109 -25 -222 -86 l-110 -58 -13 -49 c-26 -102 -85 -454 -147
-889 -70 -484 -114 -745 -125 -745 -13 0 -247 300 -379 484 -70 100 -237 342
-370 539 -438 649 -642 911 -924 1184 -483 466 -992 704 -1632 763 -124 11
-366 11 -498 -1z"/>
<path d="M7813 10429 c-30 -9 -49 -28 -151 -155 -9 -12 -24 -31 -32 -44 -8
-12 -33 -45 -55 -74 -22 -29 -49 -65 -60 -80 -11 -15 -61 -80 -110 -144 -50
-65 -97 -127 -105 -139 -8 -12 -74 -99 -146 -195 -157 -209 -163 -220 -136
-281 11 -24 33 -53 50 -65 l30 -22 2413 0 c1635 0 2426 3 2451 10 30 9 51 29
110 104 40 52 80 104 88 116 8 12 36 50 63 84 67 86 76 98 95 125 16 22 153
203 187 246 114 148 244 327 254 352 24 59 -11 132 -75 159 -28 12 -415 14
-2436 13 -1457 0 -2416 -4 -2435 -10z"/>
<path d="M4345 9061 c-606 -125 -1155 -275 -1155 -317 0 -41 23 -62 81 -74 81
-17 175 -7 284 30 152 52 366 106 690 175 171 36 354 77 409 91 54 14 100 23
103 20 13 -12 -53 -118 -208 -331 -270 -374 -600 -861 -1070 -1585 -271 -416
-288 -444 -343 -562 -91 -194 -153 -411 -182 -640 -22 -175 -15 -529 14 -693
51 -287 129 -506 261 -740 398 -703 1141 -1194 1911 -1264 74 -7 613 -11 1502
-11 l1388 0 4 22 c9 43 26 465 26 650 l0 185 -286 7 c-157 4 -624 4 -1038 0
-827 -7 -1525 6 -1671 31 -180 32 -360 106 -588 243 -135 81 -169 111 -318
287 -99 117 -157 201 -207 300 -216 433 -199 951 49 1443 92 183 179 302 329
452 123 124 229 205 371 283 78 43 116 46 231 17 94 -23 165 -58 314 -156 196
-127 287 -164 400 -164 l63 0 10 38 c41 152 73 488 75 797 1 204 -3 216 -123
352 -120 136 -193 230 -382 493 -298 416 -534 691 -589 689 -14 0 -173 -31
-355 -68z"/>
<path d="M15775 8876 c-27 -19 -113 -68 -189 -111 -194 -107 -258 -149 -301
-197 -40 -44 -84 -131 -88 -172 -1 -17 38 -82 139 -228 585 -842 1036 -1511
1102 -1638 230 -435 226 -1003 -10 -1474 -153 -306 -406 -537 -738 -675 -216
-90 -394 -125 -630 -124 -276 1 -437 45 -548 152 -90 86 -149 196 -177 332
-19 90 -35 294 -35 448 0 206 -9 209 -275 84 -204 -96 -424 -185 -598 -243
-90 -29 -132 -48 -142 -63 -21 -34 -106 -252 -225 -578 -156 -428 -209 -556
-334 -814 -104 -216 -111 -233 -111 -290 1 -106 73 -213 285 -425 302 -302
700 -613 839 -655 23 -7 24 -7 19 54 -3 40 -11 71 -25 89 -29 40 -330 310
-468 421 -152 121 -263 227 -326 310 -55 74 -137 226 -127 236 13 13 995 43
1828 55 641 10 730 16 957 65 545 116 971 363 1311 760 299 349 479 756 548
1240 24 164 24 504 0 670 -57 401 -187 759 -391 1075 -23 36 -89 128 -146 206
-58 77 -170 237 -249 355 -270 402 -820 1169 -838 1169 -4 0 -29 -16 -57 -34z"/>
<path d="M7056 8570 c-69 -61 -67 -118 9 -218 96 -126 162 -213 180 -238 11
-15 62 -82 112 -148 51 -67 118 -156 150 -198 32 -43 65 -86 73 -97 8 -10 55
-71 103 -134 62 -82 97 -118 119 -126 22 -8 741 -11 2452 -11 2384 0 2421 0
2453 20 34 21 63 66 63 100 0 38 -29 90 -102 185 -40 52 -116 150 -168 220
-52 69 -123 162 -158 208 -34 45 -68 90 -75 99 -83 116 -212 281 -248 320
l-46 48 -2441 0 -2441 0 -35 -30z"/>
<path d="M7794 6754 c-17 -8 -51 -42 -75 -74 -24 -33 -84 -113 -134 -179 -49
-65 -119 -157 -155 -205 -36 -47 -99 -130 -140 -184 -41 -54 -84 -111 -95
-127 -11 -15 -53 -70 -93 -121 -91 -117 -107 -152 -91 -202 14 -45 33 -67 72
-87 26 -13 330 -15 2451 -15 2287 0 2422 1 2447 18 22 14 117 129 204 247 9
11 43 57 78 101 34 45 69 92 77 104 8 12 49 66 90 119 41 54 84 110 95 125 11
16 47 64 80 107 159 208 159 207 159 257 0 56 -23 94 -69 116 -30 14 -264 16
-2452 16 -2146 0 -2421 -2 -2449 -16z"/>
<path d="M13416 5385 c-3 -9 -6 -22 -5 -28 0 -7 5 -1 10 12 5 13 8 26 5 28 -2
2 -6 -3 -10 -12z"/>
</g>
</svg>
